<svg width="93" height="93" viewBox="0 0 93 93" fill="none" xmlns="http://www.w3.org/2000/svg">
<rect width="93" height="93" rx="10" fill="#5CBCBC"/>
<path d="M40.853 72V33.8182H53.0085V72H40.853ZM39.2372 28.9709C37.6629 28.9709 36.3288 28.4406 35.2351 27.38C34.1248 26.3194 33.5696 25.0433 33.5696 23.5518C33.5696 22.0604 34.1248 20.7926 35.2351 19.7486C36.3288 18.688 37.6629 18.1577 39.2372 18.1577C40.7784 18.1577 42.0876 18.688 43.1648 19.7486C44.2585 20.7926 44.8054 22.0604 44.8054 23.5518C44.8054 25.0433 44.2585 26.3194 43.1648 27.38C42.0876 28.4406 40.7784 28.9709 39.2372 28.9709ZM54.7486 28.9709C53.1742 28.9709 51.8319 28.4406 50.7216 27.38C49.6278 26.3194 49.081 25.0433 49.081 23.5518C49.081 22.0604 49.6278 20.7926 50.7216 19.7486C51.8319 18.688 53.1742 18.1577 54.7486 18.1577C56.2898 18.1577 57.599 18.688 58.6761 19.7486C59.7699 20.7926 60.3168 22.0604 60.3168 23.5518C60.3168 25.0433 59.7699 26.3194 58.6761 27.38C57.599 28.4406 56.2898 28.9709 54.7486 28.9709Z" fill="#262E2E"/>
</svg>
